<?xml version="1.0" encoding="UTF-8" standalone="no"?>
<!DOCTYPE svg PUBLIC "-//W3C//DTD SVG 20010904//EN" "http://www.w3.org/TR/2001/REC-SVG-20010904/DTD/svg10.dtd">
<svg version="1.0" xmlns="http://www.w3.org/2000/svg" width="474.000000pt" height="161.000000pt" viewBox="0 0 474.000000 161.000000" preserveAspectRatio="xMidYMid meet">

<g transform="translate(0.000000,161.000000) scale(0.100000,-0.100000)" fill="#000000" stroke="none">
<path d="M3407 1590 c-29 -29 -176 -450 -227 -651 -12 -46 -25 -88 -30 -92 -4 -5 -21 -2 -38 7 -42 22 -115 20 -161 -4 -169 -86 -205 -422 -54 -496 54 -27 127 -24 186 6 40 20 51 22 65 12 35 -26 87 -44 126 -44 71 -2 156 54 156 103 0 37 -22 53 -62 45 -97 -20 -97 -20 -109 10 -30 78 62 410 237 857 41 104 74 199 74 210 -1 43 -23 57 -86 56 -43 0 -64 -5 -77 -19z m-284 -879 c19 -19 -18 -169 -51 -210 -33 -41 -80 -53 -103 -25 -20 24 -16 121 6 164 41 81 55 93 98 87 22 -3 44 -10 50 -16z"/>
<path d="M1185 1525 c-168 -38 -355 -130 -593 -288 -261 -175 -349 -271 -322 -353 13 -39 52 -64 99 -64 24 0 49 18 128 92 338 317 558 461 745 487 54 7 63 6 81 -12 17 -17 19 -28 14 -91 -7 -72 -37 -197 -79 -321 l-23 -70 -100 -42 c-115 -48 -145 -71 -145 -108 0 -68 26 -74 125 -30 38 16 55 20 55 11 0 -26 -81 -219 -180 -426 -56 -118 -104 -226 -107 -240 -3 -16 2 -33 15 -48 16 -18 30 -22 76 -22 38 0 63 5 72 15 36 36 195 415 279 665 l52 155 67 22 c36 12 101 29 143 38 41 9 84 20 95 26 22 12 38 49 38 87 0 56 -7 57 -150 18 -73 -20 -135 -34 -138 -31 -3 3 5 61 18 128 44 219 31 337 -42 389 -38 27 -139 33 -223 13z"/>
<path d="M4086 1008 c-41 -41 -60 -104 -51 -165 6 -40 3 -49 -39 -112 -89 -133 -239 -261 -308 -261 -22 0 -28 5 -28 21 0 15 13 25 48 40 26 11 64 27 84 36 44 18 55 43 38 83 -14 34 -19 36 -130 50 -110 13 -145 23 -145 41 0 11 26 15 125 19 125 5 151 12 182 47 16 18 43 101 35 109 -2 2 -48 0 -103 -6 -54 -5 -144 -14 -199 -19 -133 -12 -178 -31 -212 -88 -24 -41 -25 -48 -14 -84 14 -46 75 -92 149 -112 49 -13 52 -19 17 -35 -32 -15 -65 -69 -65 -107 0 -44 35 -94 78 -112 26 -11 57 -14 105 -10 139 9 293 115 413 282 47 66 63 76 83 51 9 -10 4 -28 -19 -77 -35 -75 -37 -112 -10 -157 37 -60 127 -79 207 -43 59 27 83 55 83 95 0 58 -29 67 -107 35 -24 -10 -36 -10 -44 -2 -14 14 -7 36 36 108 19 31 35 66 35 76 0 11 -27 40 -65 70 l-65 51 2 73 c3 61 0 78 -18 102 -30 41 -58 41 -98 1z"/>
<path d="M4317 962 c-38 -40 -37 -93 2 -133 67 -66 177 -3 156 90 -15 70 -108 95 -158 43z m126 -13 c23 -29 22 -80 -3 -107 -29 -31 -83 -30 -115 3 -27 26 -31 51 -14 89 22 49 96 57 132 15z"/>
<path d="M4340 901 c0 -28 5 -53 10 -56 6 -3 10 3 10 14 0 28 36 28 45 1 4 -11 10 -18 15 -15 6 3 5 16 0 30 -6 15 -6 27 0 30 22 14 -10 45 -45 45 l-35 0 0 -49z m65 8 c-9 -14 -45 -11 -45 4 0 8 3 17 6 20 10 9 46 -12 39 -24z"/>
<path d="M1875 888 c-202 -13 -261 -23 -306 -53 -104 -68 -58 -182 86 -215 82 -19 80 -17 45 -56 -52 -60 -63 -110 -35 -164 34 -67 123 -77 226 -26 31 16 104 63 162 106 58 44 119 86 136 95 30 15 31 15 31 -7 0 -13 -5 -40 -11 -61 -20 -73 21 -137 88 -137 66 0 99 27 180 147 42 62 80 113 86 113 5 0 6 -21 0 -52 -4 -29 -8 -79 -8 -111 0 -54 3 -61 33 -88 26 -24 41 -29 81 -29 75 0 131 27 131 64 0 15 -35 36 -61 36 -18 0 -32 6 -36 16 -3 8 6 75 20 147 29 145 27 178 -11 207 -61 49 -139 15 -236 -101 -61 -72 -71 -80 -80 -65 -35 58 -47 66 -96 66 -72 0 -145 -32 -282 -122 -167 -110 -218 -132 -218 -93 0 12 50 40 162 88 41 18 55 48 44 92 -10 38 -42 45 -207 45 -93 0 -149 4 -149 10 0 6 61 10 163 11 198 0 227 8 245 64 18 56 9 85 -26 83 -15 0 -85 -5 -157 -10z"/>
</g>
</svg>